<svg xmlns="http://www.w3.org/2000/svg" xmlns:xlink="http://www.w3.org/1999/xlink" contentStyleType="text/css" height="1057px" preserveAspectRatio="none" style="width:1708px;height:1057px;background:#FFFFFF;" version="1.1" viewBox="0 0 1708 1057" width="1708px" zoomAndPan="magnify"><title>Diagramme de cas d'utilisation &#8212; Agent Administratif IA</title><defs/><g><text fill="#000000" font-family="sans-serif" font-size="14" font-weight="bold" lengthAdjust="spacing" textLength="375.6074" x="662.6963" y="24.5332">Diagramme de cas d'utilisation &#8212; Agent Administratif IA</text><!--cluster Plateforme ? Tr?sorerie G?n?rale du Royaume--><g id="cluster_Plateforme &#8212; Tr&#233;sorerie G&#233;n&#233;rale du Royaume"><rect fill="none" height="803" rx="6" ry="6" style="stroke:#181818;stroke-width:1;" width="1344" x="358" y="145.1094"/><text fill="#000000" font-family="sans-serif" font-size="14" font-weight="bold" lengthAdjust="spacing" textLength="314.7744" x="872.6128" y="161.6426">Plateforme &#8212; Tr&#233;sorerie G&#233;n&#233;rale du Royaume</text></g><!--cluster Authentification--><g id="cluster_Authentification"><rect fill="none" height="174" rx="6" ry="6" style="stroke:#181818;stroke-width:1;" width="168" x="431.5" y="523.1094"/><text fill="#000000" font-family="sans-serif" font-size="14" font-weight="bold" lengthAdjust="spacing" textLength="106.5449" x="462.2275" y="539.6426">Authentification</text></g><!--cluster Espace employ? (mobile)--><g id="cluster_Espace employ&#233; (mobile)"><rect fill="none" height="342" rx="6" ry="6" style="stroke:#181818;stroke-width:1;" width="602" x="384" y="173.1094"/><text fill="#000000" font-family="sans-serif" font-size="14" font-weight="bold" lengthAdjust="spacing" textLength="168.0547" x="600.9727" y="189.6426">Espace employ&#233; (mobile)</text></g><!--cluster Espace d'approbation (dashboard)--><g id="cluster_Espace d'approbation (dashboard)"><rect fill="none" height="430" rx="6" ry="6" style="stroke:#181818;stroke-width:1;" width="281" x="1068.5" y="173.1094"/><text fill="#000000" font-family="sans-serif" font-size="14" font-weight="bold" lengthAdjust="spacing" textLength="230.4668" x="1093.7666" y="189.6426">Espace d'approbation (dashboard)</text></g><!--cluster Administration--><g id="cluster_Administration"><rect fill="none" height="235" rx="6" ry="6" style="stroke:#181818;stroke-width:1;" width="299" x="366" y="705.1094"/><text fill="#000000" font-family="sans-serif" font-size="14" font-weight="bold" lengthAdjust="spacing" textLength="98.7793" x="466.1104" y="721.6426">Administration</text></g><!--cluster Traitement IA (interne)--><g id="cluster_Traitement IA (interne)"><rect fill="none" height="170" rx="6" ry="6" style="stroke:#181818;stroke-width:1;" width="629" x="1065" y="611.1094"/><text fill="#000000" font-family="sans-serif" font-size="14" font-weight="bold" lengthAdjust="spacing" textLength="149.3516" x="1304.8242" y="627.6426">Traitement IA (interne)</text></g><!--entity EMP--><g id="elem_EMP"><ellipse cx="304.2344" cy="391.6094" fill="#EEF2FF" rx="8" ry="8" style="stroke:#334155;stroke-width:0.5;"/><path d="M304.2344,399.6094 L304.2344,426.6094 M291.2344,407.6094 L317.2344,407.6094 M304.2344,426.6094 L291.2344,441.6094 M304.2344,426.6094 L317.2344,441.6094 " fill="none" style="stroke:#334155;stroke-width:0.5;"/><text fill="#000000" font-family="sans-serif" font-size="14" lengthAdjust="spacing" textLength="54.4688" x="277" y="457.6426">Employ&#233;</text></g><!--entity RESP--><g id="elem_RESP"><ellipse cx="186.2964" cy="59.1094" fill="#EEF2FF" rx="8" ry="8" style="stroke:#334155;stroke-width:0.5;"/><path d="M186.2964,67.1094 L186.2964,94.1094 M173.2964,75.1094 L199.2964,75.1094 M186.2964,94.1094 L173.2964,109.1094 M186.2964,94.1094 L199.2964,109.1094 " fill="none" style="stroke:#334155;stroke-width:0.5;"/><text fill="#000000" font-family="sans-serif" font-size="14" lengthAdjust="spacing" textLength="81.7236" x="133" y="125.1426">Responsable</text><text fill="#000000" font-family="sans-serif" font-size="14" lengthAdjust="spacing" textLength="106.5928" x="133" y="142.752">(Chef de service)</text></g><!--entity DIR--><g id="elem_DIR"><ellipse cx="50.8965" cy="67.6094" fill="#EEF2FF" rx="8" ry="8" style="stroke:#334155;stroke-width:0.5;"/><path d="M50.8965,75.6094 L50.8965,102.6094 M37.8965,83.6094 L63.8965,83.6094 M50.8965,102.6094 L37.8965,117.6094 M50.8965,102.6094 L63.8965,117.6094 " fill="none" style="stroke:#334155;stroke-width:0.5;"/><text fill="#000000" font-family="sans-serif" font-size="14" lengthAdjust="spacing" textLength="56.793" x="22.5" y="133.6426">Directeur</text></g><!--entity ADMIN--><g id="elem_ADMIN"><ellipse cx="51.1274" cy="768.6094" fill="#EEF2FF" rx="8" ry="8" style="stroke:#334155;stroke-width:0.5;"/><path d="M51.1274,776.6094 L51.1274,803.6094 M38.1274,784.6094 L64.1274,784.6094 M51.1274,803.6094 L38.1274,818.6094 M51.1274,803.6094 L64.1274,818.6094 " fill="none" style="stroke:#334155;stroke-width:0.5;"/><text fill="#000000" font-family="sans-serif" font-size="14" lengthAdjust="spacing" textLength="90.2549" x="6" y="834.6426">Administrateur</text></g><!--entity IA--><g id="elem_IA"><ellipse cx="863.9258" cy="965.1094" fill="#EEF2FF" rx="8" ry="8" style="stroke:#334155;stroke-width:0.5;"/><path d="M863.9258,973.1094 L863.9258,1000.1094 M850.9258,981.1094 L876.9258,981.1094 M863.9258,1000.1094 L850.9258,1015.1094 M863.9258,1000.1094 L876.9258,1015.1094 " fill="none" style="stroke:#334155;stroke-width:0.5;"/><text fill="#000000" font-family="sans-serif" font-size="14" lengthAdjust="spacing" textLength="73.917" x="822.5" y="1031.1426">Assistant IA</text><text fill="#000000" font-family="sans-serif" font-size="14" lengthAdjust="spacing" textLength="82.8516" x="822.5" y="1048.752">(LLM + RAG)</text></g><g id="elem_UC_AUTH"><ellipse cx="515.3456" cy="673.0785" fill="#FFF7ED" rx="67.8456" ry="15.9691" style="stroke:#D96C0C;stroke-width:0.5;"/><text fill="#000000" font-family="sans-serif" font-size="14" lengthAdjust="spacing" textLength="81.2793" x="471.7059" y="677.5951">S'authentifier</text></g><g id="elem_UC_SIGNUP"><ellipse cx="515.5777" cy="569.2249" fill="#FFF7ED" rx="76.0777" ry="17.6155" style="stroke:#D96C0C;stroke-width:0.5;"/><text fill="#000000" font-family="sans-serif" font-size="14" lengthAdjust="spacing" textLength="104.2686" x="460.5672" y="573.7131">Cr&#233;er un compte</text></g><g id="elem_UC_LOGOUT"><ellipse cx="515.2678" cy="622.2629" fill="#FFF7ED" rx="73.7678" ry="17.1536" style="stroke:#D96C0C;stroke-width:0.5;"/><text fill="#000000" font-family="sans-serif" font-size="14" lengthAdjust="spacing" textLength="98.0684" x="463.2337" y="626.7795">Se d&#233;connecter</text></g><g id="elem_UC_CHAT"><ellipse cx="515.6716" cy="294.0437" fill="#FFF7ED" rx="102.6716" ry="22.9343" style="stroke:#D96C0C;stroke-width:0.5;"/><text fill="#000000" font-family="sans-serif" font-size="14" lengthAdjust="spacing" textLength="166.8447" x="432.2492" y="297.7722">Discuter avec l'assistant IA</text></g><g id="elem_UC_CREATE"><ellipse cx="863.8107" cy="419.0128" fill="#FFF7ED" rx="113.8107" ry="27.9034" style="stroke:#D96C0C;stroke-width:0.5;"/><text fill="#000000" font-family="sans-serif" font-size="14" lengthAdjust="spacing" textLength="124.5234" x="801.549" y="413.9366">Cr&#233;er une demande</text><text fill="#000000" font-family="sans-serif" font-size="14" lengthAdjust="spacing" textLength="144.71" x="791.4557" y="431.546">(cong&#233; / mission / frais)</text></g><g id="elem_UC_SOLDE"><ellipse cx="515.3464" cy="227.2786" fill="#FFF7ED" rx="116.3464" ry="25.6693" style="stroke:#D96C0C;stroke-width:0.5;"/><text fill="#000000" font-family="sans-serif" font-size="14" lengthAdjust="spacing" textLength="196.8955" x="416.8986" y="231.0072">Consulter mon solde de cong&#233;s</text></g><g id="elem_UC_SUIVI"><ellipse cx="515.5223" cy="356.1138" fill="#FFF7ED" rx="90.5223" ry="20.5045" style="stroke:#D96C0C;stroke-width:0.5;"/><text fill="#000000" font-family="sans-serif" font-size="14" lengthAdjust="spacing" textLength="139.2891" x="445.8778" y="359.8424">Suivre mes demandes</text></g><g id="elem_UC_DETAIL"><ellipse cx="515.3587" cy="422.1811" fill="#FFF7ED" rx="123.3587" ry="27.0717" style="stroke:#D96C0C;stroke-width:0.5;"/><text fill="#000000" font-family="sans-serif" font-size="14" lengthAdjust="spacing" textLength="212.0371" x="409.3402" y="425.9096">Consulter le d&#233;tail d'une demande</text></g><g id="elem_UC_PROFIL"><ellipse cx="515.5426" cy="486.9179" fill="#FFF7ED" rx="84.5426" ry="19.3085" style="stroke:#D96C0C;stroke-width:0.5;"/><text fill="#000000" font-family="sans-serif" font-size="14" lengthAdjust="spacing" textLength="125.2754" x="452.9049" y="490.6464">Consulter mon profil</text></g><g id="elem_UC_DASH"><ellipse cx="1208.7509" cy="224.8595" fill="#FFF7ED" rx="106.7509" ry="23.7502" style="stroke:#D96C0C;stroke-width:0.5;"/><text fill="#000000" font-family="sans-serif" font-size="14" lengthAdjust="spacing" textLength="175.8955" x="1120.8031" y="228.5881">Consulter le tableau de bord</text></g><g id="elem_UC_FILE"><ellipse cx="1209.1957" cy="292.3485" fill="#FFF7ED" rx="114.1957" ry="25.2391" style="stroke:#D96C0C;stroke-width:0.5;"/><text fill="#000000" font-family="sans-serif" font-size="14" lengthAdjust="spacing" textLength="192.2197" x="1113.0859" y="296.077">Consulter la file des demandes</text></g><g id="elem_UC_EXAM"><ellipse cx="1209.1108" cy="567.1259" fill="#FFF7ED" rx="117.1108" ry="28.0165" style="stroke:#D96C0C;stroke-width:0.5;"/><text fill="#000000" font-family="sans-serif" font-size="14" lengthAdjust="spacing" textLength="148.6475" x="1131.7871" y="562.8378">Examiner une demande</text><text fill="#000000" font-family="sans-serif" font-size="14" lengthAdjust="spacing" textLength="107.3994" x="1152.4111" y="580.4472">et son analyse IA</text></g><g id="elem_UC_DECISION"><ellipse cx="1208.8145" cy="363.9723" fill="#FFF7ED" rx="132.3145" ry="28.8629" style="stroke:#D96C0C;stroke-width:0.5;"/><text fill="#000000" font-family="sans-serif" font-size="14" lengthAdjust="spacing" textLength="129.1719" x="1144.2285" y="358.8961">Approuver / Rejeter /</text><text fill="#000000" font-family="sans-serif" font-size="14" lengthAdjust="spacing" textLength="177.4199" x="1120.1045" y="376.5055">Demander des modifications</text></g><g id="elem_UC_ASK"><ellipse cx="1209.1417" cy="437.2377" fill="#FFF7ED" rx="116.1417" ry="25.6283" style="stroke:#D96C0C;stroke-width:0.5;"/><text fill="#000000" font-family="sans-serif" font-size="14" lengthAdjust="spacing" textLength="196.4512" x="1110.9161" y="440.9662">Interroger l'IA sur une demande</text></g><g id="elem_UC_NOTIF"><ellipse cx="1208.8441" cy="501.2782" fill="#FFF7ED" rx="88.8441" ry="20.1688" style="stroke:#D96C0C;stroke-width:0.5;"/><text fill="#000000" font-family="sans-serif" font-size="14" lengthAdjust="spacing" textLength="135.3926" x="1141.1478" y="505.0067">G&#233;rer les notifications</text></g><g id="elem_UC_ANNU"><ellipse cx="515.4347" cy="760.8963" fill="#FFF7ED" rx="124.4347" ry="27.2869" style="stroke:#D96C0C;stroke-width:0.5;"/><text fill="#000000" font-family="sans-serif" font-size="14" lengthAdjust="spacing" textLength="214.3477" x="408.2608" y="764.6248">Consulter l'annuaire des employ&#233;s</text></g><g id="elem_UC_KB"><ellipse cx="515.3896" cy="837.2873" fill="#FFF7ED" rx="141.3896" ry="30.6779" style="stroke:#D96C0C;stroke-width:0.5;"/><text fill="#000000" font-family="sans-serif" font-size="14" lengthAdjust="spacing" textLength="200.7852" x="411.9971" y="832.9992">G&#233;rer la base de connaissances</text><text fill="#000000" font-family="sans-serif" font-size="14" lengthAdjust="spacing" textLength="162.6201" x="431.0796" y="850.6086">(r&#233;indexer les r&#232;glements)</text></g><g id="elem_UC_AUDIT"><ellipse cx="515.4914" cy="908.9077" fill="#FFF7ED" rx="101.9914" ry="22.7983" style="stroke:#D96C0C;stroke-width:0.5;"/><text fill="#000000" font-family="sans-serif" font-size="14" lengthAdjust="spacing" textLength="165.3271" x="432.8278" y="912.6362">Consulter le journal d'audit</text></g><g id="elem_UC_INTENT"><ellipse cx="1209.0471" cy="667.0188" fill="#FFF7ED" rx="127.5471" ry="27.9094" style="stroke:#D96C0C;stroke-width:0.5;"/><text fill="#000000" font-family="sans-serif" font-size="14" lengthAdjust="spacing" textLength="115.5137" x="1151.2903" y="661.9426">D&#233;tecter l'intention</text><text fill="#000000" font-family="sans-serif" font-size="14" lengthAdjust="spacing" textLength="164.1787" x="1126.9578" y="679.552">et extraire les informations</text></g><g id="elem_UC_RAG"><ellipse cx="1562.8054" cy="743.0705" fill="#FFF7ED" rx="122.8054" ry="26.9611" style="stroke:#D96C0C;stroke-width:0.5;"/><text fill="#000000" font-family="sans-serif" font-size="14" lengthAdjust="spacing" textLength="210.8477" x="1457.3816" y="746.799">Rechercher les r&#232;glements (RAG)</text></g><g id="elem_UC_ANALYSE"><ellipse cx="1208.7772" cy="743.1648" fill="#FFF7ED" rx="135.7772" ry="29.5554" style="stroke:#D96C0C;stroke-width:0.5;"/><text fill="#000000" font-family="sans-serif" font-size="14" lengthAdjust="spacing" textLength="127.6133" x="1144.9705" y="738.0886">Valider la conformit&#233;</text><text fill="#000000" font-family="sans-serif" font-size="14" lengthAdjust="spacing" textLength="186.7715" x="1115.3914" y="755.698">et g&#233;n&#233;rer la recommandation</text></g><polygon fill="none" points="288.9763,382.7702,288.5838,363.8006,277.2806,367.83,288.9763,382.7702" style="stroke:#64748B;stroke-width:1;"/><path d="M204.5424,145.9167 C227.4464,210.1667 261.6876,306.2201 282.9322,365.8153 " fill="none" style="stroke:#64748B;stroke-width:1;"/><polygon fill="none" points="132.7807,98.1094,114.7807,92.1094,114.7807,104.1094,132.7807,98.1094" style="stroke:#64748B;stroke-width:1;"/><path d="M79.6613,98.1094 C95.0123,98.1094 96.6219,98.1094 114.7807,98.1094 " fill="none" style="stroke:#64748B;stroke-width:1;"/><polygon fill="none" points="176.368,146.0607,167.1065,162.6205,178.8947,164.8654,176.368,146.0607" style="stroke:#64748B;stroke-width:1;"/><path d="M59.4636,759.9185 C82.334,639.8277 148.0317,294.8529 173.0006,163.7429 " fill="none" style="stroke:#64748B;stroke-width:1;"/><polygon fill="#64748B" points="447.4258,678.4135,438.5891,674.0646,442.4297,678.218,438.2763,682.0585,447.4258,678.4135" style="stroke:#64748B;stroke-width:1;"/><path d="M308.9953,461.5814 C315.6906,519.4386 331.152,623.1267 358,648.1094 C381.6679,670.133 410.5833,676.9716 441.4304,678.1789 " fill="none" style="stroke:#64748B;stroke-width:1;"/><polygon fill="#64748B" points="439.4952,557.341,431.8063,551.1863,434.6592,556.0711,429.7744,558.924,439.4952,557.341" style="stroke:#64748B;stroke-width:1;"/><path d="M318.311,461.2839 C326.8492,481.1056 339.7954,504.085 358,519.1094 C381.0986,538.1728 405.7736,548.4858 433.692,555.8171 " fill="none" style="stroke:#64748B;stroke-width:1;"/><polygon fill="#64748B" points="441.2836,625.8149,432.6219,621.1271,436.2987,625.4261,431.9998,629.1029,441.2836,625.8149" style="stroke:#64748B;stroke-width:1;"/><path d="M305.605,461.2482 C308.461,501.2869 319.4168,562.2776 358,596.1094 C380.5726,615.9023 406.3133,623.0872 435.3017,625.3483 " fill="none" style="stroke:#64748B;stroke-width:1;"/><polygon fill="#64748B" points="412.7138,302.4769,402.9949,300.8822,407.8762,303.741,405.0175,308.6223,412.7138,302.4769" style="stroke:#64748B;stroke-width:1;"/><path d="M317.9069,382.9833 C326.3307,363.3553 339.2964,340.8863 358,327.1094 C373.9853,315.3347 387.4444,309.0799 406.9087,303.9938 " fill="none" style="stroke:#64748B;stroke-width:1;"/><polygon fill="#64748B" points="398.7557,238.5188,388.9306,237.8347,394.0566,240.2272,391.6641,245.3532,398.7557,238.5188" style="stroke:#64748B;stroke-width:1;"/><path d="M307.3229,383.0095 C311.6402,346.467 323.8252,293.0314 358,262.1094 C369.6643,251.5553 378.1641,246.0051 393.1168,240.5689 " fill="none" style="stroke:#64748B;stroke-width:1;"/><polygon fill="#64748B" points="424.927,366.8061,415.3231,364.6233,420.0216,367.7736,416.8712,372.4721,424.927,366.8061" style="stroke:#64748B;stroke-width:1;"/><path d="M331.0171,401.3534 C339.2497,395.6555 348.6496,389.9861 358,386.1094 C378.9555,377.4212 396.6567,372.382 419.0405,367.9671 " fill="none" style="stroke:#64748B;stroke-width:1;"/><polygon fill="#64748B" points="391.8919,422.1094,382.8919,418.1094,386.8919,422.1094,382.8919,426.1094,391.8919,422.1094" style="stroke:#64748B;stroke-width:1;"/><path d="M331.1097,422.1094 C347.1241,422.1094 362.9176,422.1094 385.8919,422.1094 " fill="none" style="stroke:#64748B;stroke-width:1;"/><polygon fill="#64748B" points="430.634,478.1226,422.4813,472.5969,425.7125,477.2401,421.0693,480.4713,430.634,478.1226" style="stroke:#64748B;stroke-width:1;"/><path d="M331.0023,442.9013 C339.2344,448.6004 348.6377,454.2616 358,458.1094 C380.7469,467.4581 400.6871,472.7526 424.7282,477.0636 " fill="none" style="stroke:#64748B;stroke-width:1;"/><polygon fill="#64748B" points="1200.216,201.0574,1201.0036,191.2401,1198.5572,196.3406,1193.4567,193.8942,1200.216,201.0574" style="stroke:#64748B;stroke-width:1;"/><path d="M206.0025,50.469 C224.3028,12.306 256.3627,-34.8906 303,-34.8906 C303,-34.8906 303,-34.8906 865,-34.8906 C950.1155,-34.8906 982.9141,-56.1483 1055,-10.8906 C1136.2614,40.1277 1180.9272,146.2103 1198.2254,195.3973 " fill="none" style="stroke:#64748B;stroke-width:1;"/><polygon fill="#64748B" points="1094.6729,280.443,1088.2374,272.9876,1090.1502,278.3112,1084.8265,280.224,1094.6729,280.443" style="stroke:#64748B;stroke-width:1;"/><path d="M220.5664,50.3311 C241.1173,26.6742 269.8964,3.1094 303,3.1094 C303,3.1094 303,3.1094 865,3.1094 C950.1155,3.1094 997.3439,-35.5039 1055,27.1094 C1072.4025,46.0082 1048.6407,238.3007 1065,258.1094 C1073.0436,267.8489 1077.8957,272.535 1089.2456,277.8849 " fill="none" style="stroke:#64748B;stroke-width:1;"/><polygon fill="#64748B" points="1091.7063,551.2475,1085.6071,543.5146,1087.2824,548.9177,1081.8793,550.5929,1091.7063,551.2475" style="stroke:#64748B;stroke-width:1;"/><path d="M240.1388,136.4454 C259.0242,146.7563 281.0862,155.1094 303,155.1094 C303,155.1094 303,155.1094 865,155.1094 C919.1365,155.1094 944.0504,134.8895 986,169.1094 C1062.1265,231.2086 1036.273,282.6684 1055,379.1094 C1058.2052,395.6156 1054.2727,517.1613 1065,530.1094 C1072.3621,538.9956 1076.2458,543.1052 1086.3976,548.4517 " fill="none" style="stroke:#64748B;stroke-width:1;"/><polygon fill="#64748B" points="1076.2474,337.484,1071.855,328.6688,1072.3921,334.3001,1066.7608,334.8373,1076.2474,337.484" style="stroke:#64748B;stroke-width:1;"/><path d="M240.1388,59.7733 C259.0242,49.4625 281.0862,41.1094 303,41.1094 C303,41.1094 303,41.1094 865,41.1094 C950.1155,41.1094 997.4996,2.3531 1055,65.1094 C1074.6055,86.507 1046.8719,303.4465 1065,326.1094 C1068.3696,330.322 1067.5224,330.2785 1071.6211,333.6634 " fill="none" style="stroke:#64748B;stroke-width:1;"/><polygon fill="#64748B" points="1092.8332,423.8612,1086.585,416.2481,1088.3648,421.6177,1082.9953,423.3975,1092.8332,423.8612" style="stroke:#64748B;stroke-width:1;"/><path d="M240.1007,85.7547 C259.7257,82.1257 282.272,79.1094 303,79.1094 C303,79.1094 303,79.1094 865,79.1094 C950.1155,79.1094 997.6524,40.2135 1055,103.1094 C1077.3964,127.6726 1044.0443,376.3061 1065,402.1094 C1072.5731,411.4344 1076.8235,415.8228 1087.4712,421.169 " fill="none" style="stroke:#64748B;stroke-width:1;"/><polygon fill="#64748B" points="1119.6592,501.459,1111.6711,495.6978,1114.7655,500.4333,1110.03,503.5277,1119.6592,501.459" style="stroke:#64748B;stroke-width:1;"/><path d="M240.1007,110.4641 C259.7257,114.0931 282.272,117.1094 303,117.1094 C303,117.1094 303,117.1094 865,117.1094 C950.1155,117.1094 997.754,78.121 1055,141.1094 C1079.7469,168.3386 1041.2834,443.9782 1065,472.1094 C1078.7155,488.3779 1092.9541,495.8617 1113.7868,500.2281 " fill="none" style="stroke:#64748B;stroke-width:1;"/><polygon fill="#64748B" points="390.7437,771.2775,381.4464,768.0279,385.7605,771.6869,382.1015,776.001,390.7437,771.2775" style="stroke:#64748B;stroke-width:1;"/><path d="M96.3464,795.4658 C163.4963,789.9486 287.4667,779.7629 384.7638,771.7688 " fill="none" style="stroke:#64748B;stroke-width:1;"/><polygon fill="#64748B" points="373.9874,825.5646,365.3451,820.841,369.0041,825.1551,364.69,828.8141,373.9874,825.5646" style="stroke:#64748B;stroke-width:1;"/><path d="M96.3464,802.753 C159.7092,807.959 273.0088,817.2679 368.0075,825.0732 " fill="none" style="stroke:#64748B;stroke-width:1;"/><polygon fill="#64748B" points="413.3228,889.1606,405.329,883.4074,408.4281,888.1398,403.6957,891.2389,413.3228,889.1606" style="stroke:#64748B;stroke-width:1;"/><path d="M96.1789,811.0793 C155.5216,826.995 264.3569,855.6137 358,877.1094 C375.8394,881.2044 389.0088,884.0899 407.4492,887.9357 " fill="none" style="stroke:#64748B;stroke-width:1;"/><polygon fill="#64748B" points="1109.852,638.9389,1103.554,631.3669,1105.369,636.7247,1100.0112,638.5397,1109.852,638.9389" style="stroke:#64748B;stroke-width:1;"/><path d="M618.0073,285.2907 C722.6589,281.9256 884.467,293.5002 986,382.1094 C1065.8522,451.7974 992.3239,529.9668 1065,607.1094 C1077.4617,620.3369 1087.914,628.1033 1104.4724,636.2818 " fill="none" style="stroke:#64748B;stroke-width:1;stroke-dasharray:7.0,7.0;"/><text fill="#000000" font-family="sans-serif" font-size="13" lengthAdjust="spacing" textLength="55.6563" x="836.5" y="285.6045">&#171;include&#187;</text><polygon fill="#64748B" points="749.742,394.1096,742.732,387.1914,745.0635,392.3455,739.9095,394.677,749.742,394.1096" style="stroke:#64748B;stroke-width:1;"/><path d="M618.2567,303.3322 C635.1692,308.453 651.553,316.0185 665,327.1094 C673.5991,334.2018 666.8915,342.4609 675,350.1094 C695.8654,369.7911 717.1931,381.8365 744.1278,391.9926 " fill="none" style="stroke:#64748B;stroke-width:1;stroke-dasharray:7.0,7.0;"/><text fill="#000000" font-family="sans-serif" font-size="13" lengthAdjust="spacing" textLength="53.4917" x="677" y="345.6045">&#171;extend&#187;</text><polygon fill="#64748B" points="1080.2897,713.4543,1074.2284,705.6915,1075.8772,711.1028,1070.4659,712.7515,1080.2897,713.4543" style="stroke:#64748B;stroke-width:1;"/><path d="M876.835,447.5115 C902.3261,505.1161 968.0665,635.9888 1065,704.1094 C1069.8424,707.5124 1069.674,707.7969 1074.9947,710.6325 " fill="none" style="stroke:#64748B;stroke-width:1;stroke-dasharray:7.0,7.0;"/><text fill="#000000" font-family="sans-serif" font-size="13" lengthAdjust="spacing" textLength="55.6563" x="998" y="642.6045">&#171;include&#187;</text><polygon fill="#64748B" points="1439.9525,743.1094,1430.9525,739.1094,1434.9525,743.1094,1430.9525,747.1094,1439.9525,743.1094" style="stroke:#64748B;stroke-width:1;"/><path d="M1345.0857,743.1094 C1376.3002,743.1094 1403.3323,743.1094 1433.9525,743.1094 " fill="none" style="stroke:#64748B;stroke-width:1;stroke-dasharray:7.0,7.0;"/><text fill="#000000" font-family="sans-serif" font-size="13" lengthAdjust="spacing" textLength="55.6563" x="1365" y="738.6045">&#171;include&#187;</text><polygon fill="#64748B" points="1548.6502,715.9434,1548.064,706.112,1546.3512,711.5033,1540.9599,709.7905,1548.6502,715.9434" style="stroke:#64748B;stroke-width:1;"/><path d="M1325.2955,459.3831 C1333.7828,463.0045 1341.9605,467.2147 1349.5,472.1094 C1447.7886,535.9185 1517.3775,655.547 1545.8914,710.6153 " fill="none" style="stroke:#64748B;stroke-width:1;stroke-dasharray:7.0,7.0;"/><text fill="#000000" font-family="sans-serif" font-size="13" lengthAdjust="spacing" textLength="55.6563" x="1365" y="477.6045">&#171;include&#187;</text><polygon fill="#64748B" points="1102.6557,639.0252,1096.7262,631.1613,1098.2835,636.5996,1092.8452,638.1568,1102.6557,639.0252" style="stroke:#64748B;stroke-width:1;"/><path d="M632.1786,204.7252 C736.1488,191.5687 887.2535,190.6163 986,270.1094 C1065.1625,333.8369 1035.2896,388.4128 1055,488.1094 C1060.147,514.1431 1049.3938,585.6456 1065,607.1094 C1074.7373,620.5013 1082.8023,628.0109 1097.4091,636.1144 " fill="none" style="stroke:#64748B;stroke-width:1;stroke-dasharray:7.0,7.0;"/><text fill="#000000" font-family="sans-serif" font-size="13" lengthAdjust="spacing" textLength="55.6563" x="836.5" y="193.6045">&#171;include&#187;</text><polygon fill="#64748B" points="1081.2402,695.1547,1071.4134,695.8127,1076.817,697.4861,1075.1436,702.8898,1081.2402,695.1547" style="stroke:#64748B;stroke-width:1;"/><path d="M883.8331,956.593 C912.678,890.0571 974.1763,770.0167 1065,705.1094 C1070.1204,701.4501 1070.2627,700.9409 1075.9324,697.9524 " fill="none" style="stroke:#64748B;stroke-width:1;"/><polygon fill="#64748B" points="1489.8384,770.1312,1480.0072,769.5413,1485.1559,771.8846,1482.8127,777.0333,1489.8384,770.1312" style="stroke:#64748B;stroke-width:1;"/><path d="M905.742,988.853 C1019.9557,946.0844 1338.7264,826.7169 1484.2194,772.2352 " fill="none" style="stroke:#64748B;stroke-width:1;"/><polygon fill="#64748B" points="1169.2047,772.63,1159.6203,774.8968,1165.2257,775.6578,1164.4647,781.2632,1169.2047,772.63" style="stroke:#64748B;stroke-width:1;"/><path d="M905.6935,973.1443 C972.328,922.4399 1099.051,826.0123 1164.4299,776.2633 " fill="none" style="stroke:#64748B;stroke-width:1;"/><!--SRC=[dLNhRjis5FxlfpZpVjZ1a6PjqtOR2WEAfIH27DlmfTY00WCjqJ9RYJH8AetH5TX3x27cv_2Rx4bsI5rCsKu6B42Gw5o-yvqhE-0paaYIPHHY2X5H47TopLAcY6Q2mpz__WLUGha6ByuOPqfBL2mXzA0xaxkj4f9AHk5cj-MxhIGfukGm4HkIP_IizTrQaYGZa9ADo3MeZ6h2IKjzPdnDC2miIFGvaIBdSL-aGiBtr_R7iL0h4eilZ2Um9AcYZiQwHK9oAk7bAqUnHb2IqAdU81r98uoPfAvdhYYcIk5h2-3g18DtWMyqGiPKbbB_vxVz7_iezQGKNqhXsyjtbpzTjRuvq2JIg3a970JNhp2r0-3NhozVldc369fffFk_-z5gfNIfGGkGB5bfY9d977rQhO9JEyZMgTZijcr0sE1-NCadLAq5LsIHqe-ysr_HfOcjg7nW4JsprfDWMflx5fZcqchyS58f74QLrlFlms6jLmgr1Bc77WOQ3ExX1vXuDqK8au490-VdV_GiFOGkFcnq2-Lyj-h6GdkSOiYba5WrKw3_7CmsDWZxKCu9Cilr2clAbYooPMxR1a8z9-rfXzGcj4Xjtl_TcyzkctPzZ8pJc7E8HBRMjBASXZV3-VW04ndjjf7Wt9Ip1XsCRaRp6Pf-Qr0C5FvBWPOzX6uc5YmrxJcWwZCLvOW7v856a7Q8K_KgHl_Mcpr1tCnTHdXiHW6v9HZg0ZA683Xz5x2KXAcp6cSIUBFW00b7AKyDWGmzb4ZZOfGjbgeBCXhu1uxJd3r82XbL5OMzzJpy43uL9hLrr8IbPbVs2LJEVZ3pmi5p9DTIB5bQsOydesjhVx81SOUiqNvHh6Ct9cgr44J6nureCDHckqXkAh70xQ-vUTFR9xq882kJpd51aE11zO97Wjjts4AADnTfuirDDsYrdu3WL- - -2U2PjF87HBY02Vr43OMBZzmleAIbaOcutX6rhsy_d8QZOHCkv0WWHM8IwU1heV86jNg5fdTDFznNQKkcW0jz76quceNNHyrnZ-69zNMAsY6SvmHFc4seMgSQtXiEvwS94NohL3NA7BT04HvHXMk2gyCmfSUIjjpzZKSfmsEnNvIxgsTcuvF89JR8Z5OUCxs_BdvuV0Tck83Qejitc9aoyrDd05V2tXLCsHXnKnWx4FGHosGAOCWoRivciyJXS1OC3-x3X4OhAitlOOxGhKyu-kB_JSSF96LnKJ-icmd6z6vhYIJ5QIwKUCr5PaQZx63L3c_mspImLS0wTF3-dqFrZfcF5ZuK-BTNdsFdkpowZgIyhOx4NaBNnzubLs1FZoCepuaZAGz6oSvvJN6JwiVIaYtVjrwz-gx0xhGhi3lQSAaspHMQ3NA_YmKfoJIVPCkXUaTxzRWt93YfJGixXNLkQJ4gE3THciScGnmdocCBNTOJNhpexUS8Ve7txqlpNk_GfdX1h4q1L9eKujAed89Zf4fHsk7mdR2PtZshjnr_bdAP_9X8pIAsBYu_vcxlcidR_d7y7O7PX_rNDSx_0W00]--></g></svg>